<svg id="Calque_1" data-name="Calque 1" xmlns="http://www.w3.org/2000/svg" viewBox="0 0 406.33 174.6"><defs><style>.cls-1{fill:#e00}</style></defs><path d="M184.03 146.34l-3.9 15.3h-.1l-3.6-15.3h-7.4l-6 23.5h5.5l3.79-15h.11l3.79 15h7.21l6-23.5h-5.4z"/><path d="M152.5 146.2c-5.1 7.9-10.2 15.9-15.5 23.5h6.8l4.1-6.8h7.3l.4 6.8h6.6c-.8-7.8-1.7-15.8-2.2-23.5zm-1.8 11.8l4.1-6.7h.1l.4 6.7zM197.1 152.5c.29-1.2 2.1-1.7 3.1-1.7a7.37 7.37 0 0 1 4.1 1.2s1.2-4.7 1.2-4.9a11.3 11.3 0 0 0-5.6-1.4c-5.5 0-8.4 3.3-8.9 6.1-1 5.5 5.48 8.49 4.8 11-.51 1.9-2.3 2-3.3 2a9.94 9.94 0 0 1-4.8-1.4l-1.3 5.5a21.35 21.35 0 0 0 6.3 1.2c6.4 0 8.56-2.89 9.2-6.1 1.1-5.48-5.52-8.51-4.8-11.5zM134.2 152.5c.3-1.2 2.1-1.7 3.1-1.7a7.37 7.37 0 0 1 4.1 1.2s1.5-4.5 1.5-4.7a11.18 11.18 0 0 0-5.9-1.5c-5.5 0-8.4 3.3-8.9 6.1-1 5.5 5.48 8.49 4.8 11-.51 1.9-2.3 2-3.3 2a9.94 9.94 0 0 1-4.8-1.4l-1.3 5.5a21.35 21.35 0 0 0 6.3 1.2c6.5 0 8.56-2.89 9.2-6.1 1.11-5.58-5.59-8.5-4.8-11.6z" transform="translate(.03 .14)"/><path d="M293.82 161.64h-.09l-3.71-15.3h-7.29l-6 23.5h5.4l3.89-15 3.91 15h7.2l6-23.5h-5.4l-3.91 15.3zM224.63 151.34h8.9l1.29-5h-15.1l-6 23.5h6.21l2.39-9.3h7.5l1.21-5h-7.5l1.1-4.2zM322.82 146.34h-17.5l-1.3 5h5.71l-4.8 18.5h6.3l4.7-18.5h5.59l1.3-5zM325.02 146.34l-6 23.5h6.21l6-23.5h-6.21zM345.23 160.54l1.29-5.1h-7.79l1.09-4.1h9.81l1.3-5h-16l-6 23.5h16l1.3-5h-9.8l1.09-4.3h7.71zM384.93 160.54l1.3-5.1h-7.91l1-4.1h9.91l1.2-5h-16l-6 23.5h16l1.3-5.1h-9.8l1.09-4.2h7.91z"/><path d="M268.7 145.8c-7 0-12.9 4.4-14.9 12.2s1.7 12.2 8.7 12.2a15 15 0 0 0 14.8-11.5c2.29-8.27-1.6-12.9-8.6-12.9zm2.5 12.2c-1 3.7-3.9 7.1-7.4 7.1-3.7 0-4.7-3.4-3.8-7s3.6-7.1 7.4-7.1c3.6 0 4.6 3.2 3.8 7zM397.9 152.5c.33-1.19 2.1-1.7 3.1-1.7a7.37 7.37 0 0 1 4.1 1.2s1.2-4.7 1.2-4.9a11.11 11.11 0 0 0-5.6-1.3c-5.5 0-8.4 3.3-8.9 6.1-1 5.5 5.48 8.49 4.8 11-.51 1.9-2.3 2-3.3 2a9.94 9.94 0 0 1-4.8-1.4L387 169a21.35 21.35 0 0 0 6.3 1.2c6.4 0 8.53-2.89 9.2-6.1 1.16-5.59-5.43-8.58-4.6-11.6zM247.2 159.4a8.47 8.47 0 0 0 6.2-6c1.15-4.71-.2-7.2-5.4-7.2h-10.5l-6 23.5h5.9l4.7-18.6h3c.9 0 2.83 0 2.2 2.5-.48 1.91-1.9 3.1-4.6 3h-2.2l2.2 13h6.7c0 .1-2.2-9.7-2.2-10.2zM363.7 159.4a8.67 8.67 0 0 0 6.3-6c1.23-4.69-.2-7.2-5.4-7.2H354l-6 23.5h5.9l4.8-18.6h3c.9 0 2.83 0 2.2 2.5-.48 1.91-1.9 3.1-4.6 3h-2.2l2.2 13h6.7c-.1.1-2.2-9.7-2.3-10.2z" transform="translate(.03 .14)"/><path d="M236.22 139.44l1.31-5h-9.81l1.1-4.3h8l1.31-5h-8l1-4.1h9.8l1.29-5.1h-16l-6 23.5h16zM194.72 139.54l1.31-5.1h-9.81l1.1-4.3h7.9l1.31-5h-8l1.1-4.1h9.8l1.29-5.1h-16l-6 23.6h16z"/><path d="M249.6 139.7a55.67 55.67 0 0 0 6-.7l1.5-5.4a21.73 21.73 0 0 1-6.2 1c-3.8 0-4.77-3.39-3.8-7 .83-3.09 3.7-7.1 8.5-7.1a11.38 11.38 0 0 1 4.5 1l1.3-5.3a19.76 19.76 0 0 0-5.5-.8c-7.1 0-13.05 4.39-15.1 12.2s1.8 12.1 8.8 12.1z" transform="translate(.03 .14)"/><path d="M264.93 139.54l6-23.6h-6.2l-6 23.6h6.2zM160.53 122.64h.1l-.31 16.8 5.21.1 8.4-16.9h.1l-4.31 16.9h5.31l5.9-23.6h-8.21l-7.29 14.8h-.11l.4-14.8h-8.69l-6 23.6h5.19l4.31-16.9zM274.02 139.44l3.91-15 3.89 15.1h7.2l6-23.6h-5.39l-3.9 15.3h-.1l-3.7-15.3h-7.3l-6 23.5h5.39z"/><path d="M220.9 127.6c2.56-9.89-2.9-11.7-5.8-11.7H204l-6 23.5h9.8c6.8-.1 11.34-4.99 13.1-11.8zm-6.2 0c-.89 3.5-3.3 6.7-6.8 6.7h-2.7l3.4-13.4h3.1c3.3 0 4.11 2.3 3 6.7zM302.7 122.2c.3-1.2 2.1-1.7 3.1-1.7a7.37 7.37 0 0 1 4.1 1.2s1.2-4.6 1.2-4.9a11.11 11.11 0 0 0-5.6-1.3c-5.5 0-8.4 3.3-8.9 6.1-1 5.5 5.48 8.49 4.8 11-.51 1.9-2.3 2-3.3 2a9.94 9.94 0 0 1-4.8-1.4l-1.3 5.5a21.35 21.35 0 0 0 6.3 1.2c6.4 0 8.56-2.89 9.2-6.1 1.11-5.58-5.59-8.5-4.8-11.6z" transform="translate(.03 .14)"/><g id="running_man"><path class="cls-1" d="M63.5 152.4c1.7-1 5.6-3.1 6-3.4.7-.4 1.2-.4 1.2-.2.1.9.09 2.71 1.2 3.1.3.1 1.2-.3 1.3-.1.4.6.4.5.5.7s.7.1.8.2c.3.3 0 .7.2.8.3.3.8-.2 1.1-.1a.78.78 0 0 1 .5 1c-.1.6.2 1.1 1.2.2.5-.4.5-.2 1-.4a.94.94 0 0 1 .9.1 2.41 2.41 0 0 0 .8.6c.4.2.8 0 1.1.1s.4.7.7.8.6-.6.9-.4c.6.5-.5 1.5.3 1.7.4.1.6-.2.9-.3s.5-.4.8-.4.5.3.8.1a3 3 0 0 1 .8-.4c.4-.2.8-.1 1-.3s.1-.8.9-.7-.1.9.2 1.2 1 0 1.2-.1a1.57 1.57 0 0 0 1-1.1 17.91 17.91 0 0 1 1.2-2.4c.3-.4 1-2 1.3-2.6s1.8-2.9 2-3.3.7-.9.8-1.2a11.34 11.34 0 0 1 .8-1.9c.4-.7 1.4-2.2 1.5-2.5s.9-2.1 1.1-2.6 1.2-1.8 1.5-2.4a18.4 18.4 0 0 1 .9-1.9l.7-1.1a10.71 10.71 0 0 1 .6-1.2c.3-.7 1.3-2.2 1.6-2.7s1.1-1.6 1.1-1.6l.6-1.3.5-1a11.41 11.41 0 0 1 .6-1.5c.2-.3.8-1.1 1-1.5s.7-2.3 1-2.8 1.6-2.9 1.8-3.4 1.5-2.9 1.7-3.5a5.41 5.41 0 0 1 .4-1.5c.2-.3.7-1.2.8-1.4s1-2.4 1.2-2.8.2-.9.6-.9.6.4.9.7.8.3 1.2.6a9.57 9.57 0 0 1 1.4 1.7c0 .2.6.2.8.4s.2.6.4.7a5.67 5.67 0 0 1 1.3 1 8.79 8.79 0 0 0 .6 1c.2.2 1.3.8 1.4 1.1s1.7 2.1 1.8 2.4.3.9.5 1.1.7.6.7.8a5.85 5.85 0 0 0 .2 1.3c.1.2.8.5.9.7s.4 1.1.5 1.2.4.3.5.5.2 1.2.3 1.4.6 1 .7 1.3.6.9.7 1.2.1 1.2.2 1.5a13.39 13.39 0 0 0 .6 1.2 5.64 5.64 0 0 0 .1.7l.4.9a5.48 5.48 0 0 1 .4 1.2c0 .3.1.7.1.9s.4.8.4 1a7.26 7.26 0 0 0 .5 1.2 4.65 4.65 0 0 0 0 1.2 5.36 5.36 0 0 1 .5 1.1c0 .2-.1.8-.1.8l.2.4a1.58 1.58 0 0 0 0 .7c.1.2-.1.6 0 .7a9.74 9.74 0 0 1 .5 1.1c-.3.3-19.49 9.23-27.8 13.1-11.9 5.54-36.6 17.9-39.2 19.4s-4.3 2.41-4.9 2.1c-1.51-.78-3.82-2.89-5.5-7.4a20.44 20.44 0 0 1-1.3-8.6 3.15 3.15 0 0 1 1.8-3.2c.6.1 4-1.8 5.7-2.8zM29.3 84.3c.1.2.5.2.8.2s.5.3.7.4.5-.1.6 0c.3.2.2.5.4.8s.3.7.6.8.6 0 .7.3-.11.7.1 1.1c.48.91.1 3.5.5 3.6a3.31 3.31 0 0 0 2.3-.7 17.72 17.72 0 0 1 1.6-1.4 16.86 16.86 0 0 1 2.8-1.2c.7-.1 1-1.2 1.7-1.3s.4-.6.9-.8 1.3-.7 1.6-.4a1.83 1.83 0 0 0 .8.6c.5.2 1-.1 1.1.5.12.8 1.4.1 1.4.1a21.18 21.18 0 0 1 2.2-1.3l2.4-1.2s1.4-.7 1.9-1c20.8-10 37.11-15.47 52.2-21.3 23.42-9.05 63.9-19.49 71.6-21.4.8-.2 2.6-.5 2.8-.6a1.24 1.24 0 0 0 .8-1c.19-.7-.4-1.7-.4-2.1s.79-1.8.9-2.5-.6-.7-.6-.7a3.78 3.78 0 0 0-.1-1.4c-.2-.6-1.2-1.1-1.4-1.6s0-1.8-.2-2.3a1.88 1.88 0 0 0-.7-.8.93.93 0 0 0 0-.6c-.1-.4-.6-.4-.6-.4a3.78 3.78 0 0 0 .1-1.2c-.1-.3-.6-.6-.6-.6s-.6-.4-.6-.7a.81.81 0 0 0-.4-.8 7 7 0 0 0-1.4-.3 3 3 0 0 0-1.4-.2c-.5.1-.6.5-1.9.7a10.75 10.75 0 0 1-2.4.1c-.6.1-1.2.5-1.8.6-6.3 1.6-35 10-56.2 18a601.88 601.88 0 0 0-57.5 25.5c-10.8 5.6-16.6 8.86-19 10.4a19 19 0 0 0-2.8 2c-.3.6-.7 1.41-1.4 1.5-.9.11-.7.6-1 .7a3 3 0 0 0-1 .7 1.31 1.31 0 0 0-.1 1.2zM118.8 71.4c-1-.61-.61-1.12.5-1.6 6.86-3 24.19-9.13 34.1-12.3 8.49-2.72 31.86-10.43 38.4-12.2 1.59-.43 2.21-.41 2.9.3a31.29 31.29 0 0 1 5.1 7.5 42.18 42.18 0 0 1 3.3 9.7c.38 1.9-.5 2.3-1.6 2.7-7.2 3.2-25.1 11.1-32.6 14.6-7.3 3.4-20.61 9.77-25.1 12.1-1.91 1-1.57 1.28-2.9-.1a16 16 0 0 1-1.2-1.8c-.2-.3-2.7-2.5-3-2.8s-1.7-1.9-2-2.2-1.6-1.9-1.9-2.1a5.67 5.67 0 0 1-1.3-.8 9.32 9.32 0 0 0-1-1 9.23 9.23 0 0 1-.9-.8l-.9-.8-.7-.8a3.7 3.7 0 0 0-1.1-1 3.8 3.8 0 0 1-1.3-1.2 17.86 17.86 0 0 0-2.4-2.6c-.7-.5-2.5-1.6-2.9-1.9-.2-.1-.7-.41-1.5-.9zM145.2 96.7c-.7-.7.2-.79 1-1.1 3-1.17 21.1-6.8 36.8-10.9s38.3-8.79 41.7-9.5c1.4-.29 2-.09 2.7 1.1a35.81 35.81 0 0 1 3.2 9.4 25.72 25.72 0 0 1-.4 10.3c-.31.9-1.61 1-4.7 1.8-1.8.48-9.61 2.48-12.8 3.4-3.71 1.07-13.5 3.9-17.1 5.1-4.5 1.5-10.3 3.5-10.3 3.5l-31.1.5a14.41 14.41 0 0 0-.7-2.3c-.3-.2-.7-1.2-1-1.5a4.49 4.49 0 0 1-.6-1.3s-.3-1.1-.6-1.3-.9-1.8-1.2-2a8.7 8.7 0 0 1-1.2-1.4 4.7 4.7 0 0 0-.9-1.2 15.41 15.41 0 0 0-1.4-1.3c-.4 0-.7-.6-1.4-1.3zM107.6 36.8a4.21 4.21 0 0 1-1.9-.2c-.1-.2 0-.4-.2-.6a.76.76 0 0 0-.8 0c-.1.1-.1.1-.4.2s-1.5-.3-1.9-.2a2.89 2.89 0 0 1-1.6 0c-.3-.2-.4-1-.9-1.2a3.38 3.38 0 0 1-1.4-1.1c-.3-.5-1-1.2-1.2-1.5a6.12 6.12 0 0 1-.5-1.2 11.73 11.73 0 0 0-.5-1.1l-.6-.6c-.2-.2-.3-.9-.5-1.1a2.15 2.15 0 0 1-.4-.7c-.1-.2-.1-.5-.2-.7s-.4-.6-.5-.9a13.07 13.07 0 0 1-.1-3.1 21 21 0 0 1 .1-2.9c.09-.5.4-1 .5-1.5s.8-2.2.9-3 .6-2.3.8-2.8.8-1.9 1-2.4 1.3-2 1.7-2.5a33.63 33.63 0 0 1 2.8-2.8c.4-.31 1.5-1.1 1.8-1.3a23.61 23.61 0 0 1 2-1.3 1.72 1.72 0 0 1 .8-.2l.4-.5a1.13 1.13 0 0 1 .5-.4c.2-.2.8-.2.8-.2a2.25 2.25 0 0 1 1.4-.4c.3.1.5-.5.8-.6a3.53 3.53 0 0 1 1.4-.1 1.45 1.45 0 0 0 .9.4 4.52 4.52 0 0 0 1.2 0 5.58 5.58 0 0 1 .8.5 28 28 0 0 1 3.1 3 2.54 2.54 0 0 1 .2.7 4.15 4.15 0 0 1 .7 1.1c.1.5.6.7.7 1.4 0 .4.8.8 1.1 1.7a6 6 0 0 1 .2 1.2 1.08 1.08 0 0 1 .4.5 2.08 2.08 0 0 1 .1 1.1c0 .4.7 1.8.6 2.7a16.37 16.37 0 0 1-.4 2.5 23.2 23.2 0 0 0-.2 2.4c-.1.5-.5 1.8-.6 2.1a32.35 32.35 0 0 1-1.3 3.3 17.39 17.39 0 0 1-1.1 1.8c-.3.3-2.4 3.3-2.8 3.7s-1.3 1.1-1.5 1.4a5.39 5.39 0 0 0-.7 1.3c-.4.7-1 .2-1.3.7-.41.7-1.1.8-1.2 1.2a3.62 3.62 0 0 1-.9 1.3 3.33 3.33 0 0 1-2.1.9zM45.5 127.8s-9.1 3.11-12.7 4.4c-3.4 1.21-7.22 2.56-9.8 3.6-3.12 1.25-8.51 3.48-9.8 3.9-2 .66-2.9.3-3.4-.9a30 30 0 0 1-2.6-6.7 35.06 35.06 0 0 1-1-6.3 4.08 4.08 0 0 1 1.8-3.1c1.1-.6 3.8-2.21 5.9-3.4 4.09-2.32 18-9.78 26.3-14.1 8.81-4.58 22.7-11.3 30.2-15s19.7-9.5 21.2-10.1 3-1.4 3.8-1.4.5.4.5.6-.3.4-.3.9a8.81 8.81 0 0 1-.2 1.7c-.2.5-.7 1.1-.8 1.4a7.64 7.64 0 0 1-.5 2.1 19 19 0 0 0-2 4.2 18.6 18.6 0 0 1-1.2 3.6 10.66 10.66 0 0 0-1.2 2.7 17 17 0 0 1-.9 2.4c-.2.6-1.3 2.6-1.5 3s-.9 2.8-1.1 3.2-.9 1.5-.9 1.5l-.4 1.6a9.64 9.64 0 0 0-1 1.8 12.76 12.76 0 0 1-1.1 3.3 38.68 38.68 0 0 0-2.5 5.9c-.4 1.4-1 3.4-1.2 3.9s-1.2 2.1-1.4 2.7-1 3.3-1.3 3.9a9.87 9.87 0 0 0-1 2.7 12 12 0 0 1-1 2.8c-.5 1-1 2.8-1.3 3.4a9.33 9.33 0 0 0-.7 1.5c-.1.4-.2 1.4-.3 1.7a6.66 6.66 0 0 1-.3.7c-.5.2-25.32 10.86-28.8 12.5S14.31 168 12.8 168.7 9.09 171 7.6 170c-2-1.38-3.9-4.2-5.2-6.7a24.08 24.08 0 0 1-2.4-8.1c-.23-3.2 1.05-3.9 5.8-6.5 2.28-1.25 39.7-20.9 39.7-20.9z" transform="translate(.03 .14)"/></g></svg>